<?xml version="1.0" encoding="UTF-8"?>
<svg id="Layer_1" data-name="Layer 1" xmlns="http://www.w3.org/2000/svg" viewBox="0 0 245.32 77.07">
  <defs>
    <style>
      .cls-1 {
        fill: #172d49;
      }

      .cls-1, .cls-2, .cls-3 {
        stroke-width: 0px;
      }

      .cls-2 {
        fill: #fff;
      }

      .cls-3 {
        fill: #e21a1a;
      }
    </style>
  </defs>
  <path class="cls-3" d="m240.16,15.52v21.19c0,6.86-5.56,12.42-12.42,12.42H84.83c5.8-2.2,10.72-6.55,13.52-12.3,1.56-3.18,2.39-6.59,2.48-10.14v-.45c0-.26,0-.52,0-.78,0-6.98,0-13.91,0-20.84,0-.57,0-1.07-.13-1.52h127.05c6.86,0,12.42,5.56,12.42,12.42Z"/>
  <g>
    <g>
      <path class="cls-2" d="m121.16,36.19V14.67h7.69c2.48,0,4.54.47,6.16,1.41,1.63.94,2.85,2.22,3.66,3.84.81,1.62,1.21,3.46,1.21,5.53s-.4,3.88-1.21,5.5c-.81,1.62-2.03,2.9-3.66,3.83-1.63.93-3.68,1.4-6.16,1.4h-7.69Zm7.16-17.65h-2.86v13.77h2.86c1.7,0,3.07-.3,4.12-.91,1.05-.6,1.8-1.42,2.28-2.46s.71-2.2.71-3.49-.24-2.48-.71-3.52-1.23-1.86-2.28-2.48c-1.04-.62-2.42-.92-4.12-.92Z"/>
      <path class="cls-2" d="m143.94,18.88c-.7,0-1.29-.24-1.77-.72-.48-.48-.72-1.06-.72-1.74s.24-1.22.72-1.71,1.07-.72,1.77-.72,1.31.24,1.78.72c.47.48.71,1.05.71,1.71,0,.7-.24,1.28-.71,1.75-.47.47-1.07.71-1.78.71Zm-2.06,17.31v-15.99h4.15v15.99h-4.15Z"/>
      <path class="cls-2" d="m148.49,36.19v-15.99h4.09v2.34c.84-1.8,2.47-2.71,4.89-2.71,1.15,0,2.18.27,3.11.8.92.53,1.65,1.29,2.18,2.27.53.98.8,2.15.8,3.5v9.78h-4.15v-8.76c0-1.39-.32-2.4-.95-3.03-.64-.62-1.47-.94-2.49-.94-.88,0-1.66.31-2.32.94-.67.63-1,1.63-1,3.03v8.76h-4.15Z"/>
      <path class="cls-2" d="m165.86,36.19v-15.99h4.09v2.34c.84-1.8,2.47-2.71,4.89-2.71,1.15,0,2.18.27,3.11.8.92.53,1.65,1.29,2.18,2.27.53.98.8,2.15.8,3.5v9.78h-4.15v-8.76c0-1.39-.32-2.4-.95-3.03-.64-.62-1.47-.94-2.49-.94-.88,0-1.66.31-2.32.94-.67.63-1,1.63-1,3.03v8.76h-4.15Z"/>
      <path class="cls-2" d="m185.29,18.88c-.7,0-1.29-.24-1.77-.72-.48-.48-.72-1.06-.72-1.74s.24-1.22.72-1.71,1.07-.72,1.77-.72,1.31.24,1.78.72c.47.48.71,1.05.71,1.71,0,.7-.24,1.28-.71,1.75-.47.47-1.07.71-1.78.71Zm-2.06,17.31v-15.99h4.15v15.99h-4.15Z"/>
      <path class="cls-2" d="m189.84,36.19v-15.99h4.09v2.34c.84-1.8,2.47-2.71,4.89-2.71,1.15,0,2.18.27,3.11.8.92.53,1.65,1.29,2.18,2.27.53.98.8,2.15.8,3.5v9.78h-4.15v-8.76c0-1.39-.32-2.4-.95-3.03-.64-.62-1.47-.94-2.49-.94-.88,0-1.66.31-2.32.94-.67.63-1,1.63-1,3.03v8.76h-4.15Z"/>
      <path class="cls-2" d="m214.99,42.74c-1.62,0-3.06-.22-4.32-.66-1.26-.44-2.37-1.22-3.34-2.35l2.58-3.04c.76.86,1.55,1.44,2.37,1.75.82.31,1.73.46,2.74.46.74,0,1.42-.18,2.06-.55.64-.37,1.14-.89,1.52-1.55.38-.67.57-1.42.57-2.26v-.71c-.43.74-1.02,1.33-1.77,1.78s-1.77.68-3.06.68c-1.46,0-2.77-.37-3.95-1.11s-2.11-1.73-2.78-2.97c-.68-1.24-1.01-2.63-1.01-4.17s.34-2.93,1.01-4.18c.68-1.25,1.6-2.24,2.78-2.97s2.5-1.09,3.95-1.09c1.33,0,2.37.24,3.12.71s1.34,1.1,1.77,1.88v-2.18h4.09v14.57c0,1.64-.35,3.05-1.06,4.24s-1.69,2.11-2.94,2.75c-1.25.65-2.7.97-4.33.97Zm.03-10.24c1.37,0,2.44-.43,3.2-1.29.76-.86,1.14-1.92,1.14-3.17s-.38-2.31-1.14-3.17c-.76-.86-1.82-1.29-3.2-1.29s-2.4.43-3.15,1.29c-.75.86-1.12,1.92-1.12,3.17,0,.8.17,1.54.51,2.21.34.68.83,1.22,1.46,1.63.63.41,1.4.62,2.31.62Z"/>
    </g>
    <g>
      <g>
        <path class="cls-3" d="m99.24,4.62c0-1.51,0-1.52-1.53-1.52h-22.31c-3.73.12-7.24,1.13-10.33,2.82-7.15,3.92-12.01,11.52-11.98,20.2.03,12.76,10.34,23.01,23.16,23.01h.02c9.05,0,16.92-5.31,20.66-12.99,1.41-2.88,2.23-6.09,2.32-9.49,0-.4,0-.8,0-1.21v-.03c0-6.93,0-13.86,0-20.79Zm-22.97,40.12h-.1c-10.29,0-18.63-8.34-18.63-18.62s8.34-18.63,18.63-18.63h.1c10.23.05,18.52,8.37,18.52,18.63s-8.29,18.57-18.52,18.62Z"/>
        <path class="cls-2" d="m94.79,26.12c0,10.25-8.29,18.57-18.52,18.62h-.1c-10.29,0-18.63-8.34-18.63-18.62s8.34-18.63,18.63-18.63h.1c10.23.05,18.52,8.37,18.52,18.63Z"/>
      </g>
      <path class="cls-1" d="m51.3,23.87v27.02c0,6.61-2.81,12.6-7.29,16.81-4.11,3.88-9.64,6.26-15.7,6.26-12.42.02-22.49-9.6-23.15-21.8-.01-.26.2-.48.46-.48h8.74c.24,0,.44.19.46.43.59,6.8,6.33,12.18,13.29,12.19,7.18.02,12.92-5.45,13.39-12.42v-28.01c-1.06-6.34-6.54-11.12-13.2-11.14h-.04c-7.39,0-13.46,6.05-13.42,13.39.04,7.41,6.03,13.35,13.46,13.34,4.54,0,8.53-2.22,10.94-5.62.17-.24.56-.12.56.18v11.16c0,.55-.3,1.05-.79,1.3-3.23,1.7-6.91,2.66-10.81,2.64-12.72-.05-23.07-10.42-23.03-23.07.04-12.7,10.41-22.99,23.12-22.96,5.01,0,9.65,1.62,13.45,4.33,2.06,1.47,3.86,3.26,5.34,5.31,2.32,3.2,3.83,7.02,4.22,11.14Z"/>
      <g>
        <path class="cls-3" d="m64.1,26.18c.27.27.55.52.81.79.93.96,1.86,1.93,2.79,2.89.04.05.07.1.09.17.02.06.03.13.02.19,0,.52,0,1.03,0,1.55,0,1.16,0,2.31,0,3.47,0,.16.04.2.19.2,1.64,0,3.28,0,4.92,0,.09.01.17.06.23.12.49.5.97,1,1.45,1.5.7.73,1.4,1.47,2.12,2.22.17-.18.33-.34.49-.5,1.03-1.08,2.06-2.16,3.1-3.23.09-.08.2-.12.32-.12,1.62,0,3.23,0,4.85,0,.15,0,.18-.05.18-.19,0-1.68,0-3.35,0-5.03,0-.07,0-.14.04-.21.03-.07.07-.13.12-.18.76-.78,1.51-1.56,2.26-2.34.06-.06.13-.1.21-.11.76,0,1.51,0,2.27,0,.03,0,.07,0,.1.02-.02.04-.04.07-.07.1-1,1.04-2,2.08-3.01,3.12-.05.04-.08.1-.1.16-.02.06-.03.12-.03.19,0,2.01,0,4.03,0,6.04,0,.29,0,.29-.28.29-1.95,0-3.9,0-5.84,0-.09,0-.18.04-.25.1-.96.99-1.91,1.98-2.86,2.98-.45.47-.91.94-1.36,1.42-.09.09-.14.08-.22,0-.48-.5-.97-1-1.45-1.51-.93-.97-1.87-1.94-2.8-2.91-.05-.05-.12-.07-.19-.08-1.96,0-3.93,0-5.89,0-.26,0-.26,0-.26-.27,0-2.03,0-4.05,0-6.08,0-.06,0-.12-.03-.17-.02-.05-.05-.1-.09-.14-.89-.92-1.77-1.84-2.66-2.76-.53-.55-1.05-1.1-1.58-1.65-.02-.02-.04-.04-.06-.08.06-.07.12-.15.18-.21.92-.96,1.84-1.92,2.77-2.87.45-.47.9-.94,1.35-1.41.07-.08.11-.18.11-.29,0-2.04,0-4.08,0-6.11,0-.24,0-.24.24-.24,1.95,0,3.9,0,5.84,0,.06,0,.12,0,.18-.03.06-.02.11-.06.15-.11,1.34-1.39,2.68-2.79,4.02-4.18.09-.09.17-.19.27-.31.28.29.54.56.8.83,1.18,1.23,2.36,2.45,3.54,3.68.07.07.17.11.27.11,1.96,0,3.92,0,5.88,0,.24,0,.24,0,.24.26,0,2.03,0,4.05,0,6.08,0,.06,0,.12.03.18.02.06.06.11.1.15.98,1.01,1.96,2.03,2.94,3.05.06.06.12.14.17.2l-.02.05h-.55c-.58,0-1.15,0-1.73,0-.11,0-.22-.05-.3-.13-.77-.79-1.54-1.59-2.31-2.4-.07-.08-.12-.18-.12-.29,0-1.69,0-3.38,0-5.07,0-.18-.05-.22-.21-.22-1.62,0-3.25,0-4.87,0-.1,0-.19-.05-.26-.12-1.15-1.19-2.3-2.38-3.44-3.57-.1-.1-.16-.12-.27,0-.7.73-1.4,1.46-2.1,2.19-.45.47-.9.94-1.35,1.4-.08.07-.18.11-.28.11-1.6,0-3.2,0-4.8,0h-.23c0,.1-.01.18-.01.26,0,1.64,0,3.27,0,4.91,0,.09,0,.17-.04.25-.03.08-.08.15-.14.21-1.14,1.18-2.28,2.36-3.42,3.55-.03.03-.05.06-.12.14Z"/>
        <path class="cls-3" d="m82.98,27.4c-.14.44-.29.86-.41,1.29-.05.15-.08.3-.08.46,0,.92,0,1.84,0,2.77,0,.17-.06.19-.2.19-.89,0-1.78,0-2.67-.01-.28,0-.51.14-.76.23-1.16.44-2.43.5-3.63.19-.33-.09-.65-.23-.98-.34-.11-.04-.22-.06-.33-.07-.9,0-1.8,0-2.7,0-.17,0-.22-.05-.22-.23,0-.93,0-1.87,0-2.8,0-.12-.02-.23-.07-.34-.56-1.33-.67-2.8-.32-4.19.08-.32.21-.62.3-.94.05-.14.08-.28.09-.42,0-.92,0-1.84,0-2.77,0-.22,0-.23.23-.23.9,0,1.8,0,2.7,0,.12,0,.24-.03.34-.08.72-.33,1.51-.51,2.3-.53.8-.02,1.59.12,2.33.41.34.14.69.21,1.06.2.77-.02,1.55,0,2.32-.02.15,0,.21.05.2.21,0,.92,0,1.84,0,2.77,0,.16.04.31.09.46.11.39.24.79.36,1.18.04.13,0,.17-.13.17-.52,0-1.04,0-1.56,0-.03,0-.06-.02-.09-.04-.03-.02-.05-.05-.06-.08-.13-.3-.25-.61-.36-.92-.04-.11-.05-.23-.05-.34,0-.45,0-.9,0-1.35,0-.14-.04-.19-.18-.18-.44,0-.89.02-1.33,0-.17-.02-.33-.06-.48-.14-1.37-.64-2.73-.62-4.08.08-.1.04-.2.07-.31.06-.45,0-.9,0-1.35,0-.13,0-.18.04-.17.18,0,.45.01.91,0,1.36,0,.15-.04.3-.1.44-.32.65-.49,1.37-.49,2.1s.16,1.45.48,2.1c.07.15.1.32.11.49.01.44,0,.89,0,1.33,0,.14.03.2.18.19.46,0,.92,0,1.38,0,.1,0,.19.02.28.07,1.37.7,2.74.72,4.13.05.15-.07.31-.11.47-.11.43-.02.87,0,1.3,0,.13,0,.17-.05.17-.17,0-.47,0-.95,0-1.42.01-.13.04-.26.09-.39.09-.25.19-.51.3-.75.03-.06.1-.14.15-.14.54-.01,1.08,0,1.62,0,.04,0,.08.02.12.03Z"/>
      </g>
      <path class="cls-1" d="m50.35,14.71c-2.35-4.53-6.05-8.25-10.57-10.63-.47-.25-.29-.95.24-.95,3.24,0,6.48,0,9.72,0,1.56,0,1.56,0,1.56,1.51,0,3.28,0,6.55,0,9.82,0,.53-.71.71-.95.24Z"/>
    </g>
  </g>
</svg>